#!OML:ASF E:\Style4\Style4.ASF
:FULLY-SPECIFIED
:DEGREES
1046
root -0.196863 17.9521 -2.28674 -0.537779 0.287894 1.11849
lowerback 6.54371 2.41637 0.733596
upperback 1.58289 3.24237 -0.944538
thorax -1.936 1.6141 -1.64254
lowerneck 0.173297 -3.59117 -4.91089
upperneck 12.5913 -5.33221 6.1767
head 4.0179 -2.57111 2.50417
rclavicle -8.08495e-015 1.11568e-014
rhumerus 76.9175 -35.384 -49.3523
rradius 37.1284
rwrist -51.2025
rhand -1.86715 18.1967
rfingers 7.12502
rthumb 23.8008 -10.3491
lclavicle -8.08495e-015 1.11568e-014
lhumerus 75.9141 30.6477 50.961
lradius 43.7861
lwrist 56.5609
lhand 9.38902 25.3608
lfingers 7.12502
lthumb 34.5466 52.0215
rfemur -10.5587 2.08324 17.519
rtibia 26.7426
rfoot -14.8063 -13.8402
rtoes -8.62533
lfemur -7.87076 -1.21943 -20.5662
ltibia 25.0429
lfoot -16.9857 11.2336
ltoes -13.0404
1047
root -0.199864 17.9513 -2.28766 -0.558063 0.2918 1.08569
lowerback 6.56293 2.39794 0.737249
upperback 1.56737 3.21898 -0.905256
thorax -1.96552 1.60205 -1.60384
lowerneck 0.239044 -3.57714 -4.96031
upperneck 12.5816 -5.31443 6.18577
head 4.00449 -2.56546 2.51714
rclavicle -2.90723e-015 8.44835e-016
rhumerus 76.9935 -35.2502 -49.4181
rradius 37.079
rwrist -50.9953
rhand -1.83043 18.3814
rfingers 7.12502
rthumb 23.836 -10.1597
lclavicle -2.90723e-015 8.44835e-016
lhumerus 75.7958 30.6623 50.8653
lradius 43.8081
lwrist 56.5983
lhand 9.36639 25.3499
lfingers 7.12502
lthumb 34.5251 52.0156
rfemur -10.5237 2.09004 17.5646
rtibia 26.7123
rfoot -14.8105 -13.8342
rtoes -8.32198
lfemur -7.8339 -1.24255 -20.5202
ltibia 25.0156
lfoot -17.0036 11.2309
ltoes -12.848
1048
root -0.203392 17.9521 -2.28859 -0.568726 0.291902 1.02054
lowerback 6.57572 2.38919 0.771107
upperback 1.56197 3.21067 -0.859526
thorax -1.97923 1.59762 -1.5759
lowerneck 0.283521 -3.54864 -4.96086
upperneck 12.486 -5.27624 6.2128
head 3.9665 -2.54714 2.52829
rclavicle 3.22218e-014 -6.01324e-015
rhumerus 77.05 -35.1637 -49.415
rradius 37.0301
rwrist -50.8183
rhand -1.88019 18.4887
rfingers 7.12502
rthumb 23.7883 -10.0586
lclavicle 3.22218e-014 -6.01324e-015
lhumerus 75.632 30.6793 50.7558
lradius 43.9351
lwrist 56.6094
lhand 9.34219 25.2481
lfingers 7.12502
lthumb 34.5022 51.919
rfemur -10.4913 2.12448 17.6538
rtibia 26.6658
rfoot -14.8167 -13.8718
rtoes -8.33294
lfemur -7.80265 -1.26515 -20.4365
ltibia 24.9774
lfoot -17.0195 11.2099
ltoes -12.6694
1049
root -0.2067 17.9551 -2.28831 -0.557531 0.296614 1.0531
lowerback 6.5559 2.39747 0.765723
upperback 1.5652 3.22074 -0.883684
thorax -1.96345 1.60283 -1.59743
lowerneck 0.302341 -3.53676 -4.91681
upperneck 12.3742 -5.26045 6.2415
head 3.92813 -2.53751 2.53124
rclavicle -4.52468e-014 -6.95746e-016
rhumerus 77.0428 -35.1748 -49.3914
rradius 37.0332
rwrist -50.6795
rhand -1.92174 18.3697
rfingers 7.12502
rthumb 23.7485 -10.1829
lclavicle -4.52468e-014 -6.95746e-016
lhumerus 75.657 30.6485 50.7683
lradius 44.0068
lwrist 56.5045
lhand 9.4299 25.2515
lfingers 7.12502
lthumb 34.5854 51.9033
rfemur -10.4776 2.11237 17.6278
rtibia 26.62
rfoot -14.7691 -13.8897
rtoes -8.74492
lfemur -7.77343 -1.25801 -20.4647
ltibia 24.8992
lfoot -17.002 11.2455
ltoes -12.8076
1050
root -0.210784 17.9579 -2.28887 -0.556948 0.29656 1.0855
lowerback 6.55536 2.41329 0.782151
upperback 1.57126 3.24201 -0.92427
thorax -1.95295 1.61353 -1.64972
lowerneck 0.325542 -3.55604 -4.9334
upperneck 12.2901 -5.28989 6.30495
head 3.90246 -2.55118 2.55293
rclavicle 3.85642e-014 -1.04113e-014
rhumerus 76.9151 -35.2207 -49.2668
rradius 37.0847
rwrist -50.6099
rhand -2.006 18.2828
rfingers 7.12502
rthumb 23.6676 -10.2802
lclavicle 3.85642e-014 -1.04113e-014
lhumerus 75.6515 30.6226 50.7004
lradius 44.1057
lwrist 56.4961
lhand 9.49431 25.4446
lfingers 7.12502
lthumb 34.6466 52.0825
rfemur -10.4612 2.14168 17.6084
rtibia 26.5816
rfoot -14.7066 -13.9298
rtoes -8.85498
lfemur -7.72141 -1.24507 -20.4803
ltibia 24.7966
lfoot -16.9796 11.2462
ltoes -12.8626
1051
root -0.214008 17.9598 -2.28822 -0.563958 0.324678 1.15056
lowerback 6.54899 2.41527 0.753627
upperback 1.5788 3.24169 -0.970815
thorax -1.94052 1.61365 -1.68104
lowerneck 0.308109 -3.57853 -4.88644
upperneck 12.304 -5.31987 6.28704
head 3.90969 -2.56421 2.53813
rclavicle 1.51884e-014 -1.17283e-014
rhumerus 76.8556 -35.1967 -49.2719
rradius 37.1002
rwrist -50.4186
rhand -2.16603 18.3499
rfingers 7.12502
rthumb 23.5141 -10.2328
lclavicle 1.51884e-014 -1.17283e-014
lhumerus 75.5667 30.6008 50.5261
lradius 44.2341
lwrist 56.6838
lhand 9.36136 25.6329
lfingers 7.12502
lthumb 34.5204 52.2996
rfemur -10.426 2.11502 17.5456
rtibia 26.5412
rfoot -14.6905 -13.9453
rtoes -8.76574
lfemur -7.66477 -1.31282 -20.5433
ltibia 24.7007
lfoot -16.8962 11.3008
ltoes -13.0955
